<?xml version="1.0" encoding="utf-8" standalone="yes"?>
<!DOCTYPE svg PUBLIC "-//W3C//DTD SVG 1.1//EN" "http://www.w3.org/Graphics/SVG/1.1/DTD/svg11.dtd">
<svg width="581" height="508" viewBox="0 0 581 508" style="fill:none;stroke:none;fill-rule:evenodd;clip-rule:evenodd;stroke-linecap:round;stroke-linejoin:round;stroke-miterlimit:1.5;" version="1.1" xmlns="http://www.w3.org/2000/svg" xmlns:xlink="http://www.w3.org/1999/xlink"><style class="text-font-style fontImports" data-font-family="Shantell Sans">@import url('https://fonts.googleapis.com/css2?family=Shantell+Sans:wght@300..800&amp;display=block');</style><rect id="" x="0" y="0" width="580.014" height="507.941" style="fill: #2c2c2c;"></rect><g id="items" style="isolation: isolate"><g id="blend" style="mix-blend-mode: normal"><g id="g-root-tf_1hgbdvjualslg-fill" data-item-order="-290277" transform="translate(-8, -8)"><g id="tf_1hgbdvjualslg-fill" stroke="none" fill="#2c2c2c"><g><path d="M 9.996836 10L 586.006836 10L 586.006836 513.94L 9.996836 513.94Z"></path></g></g></g><g id="g-root-0.cr-big_cr_de708vuac07e-fill" data-item-order="-94987" transform="translate(232.0068359375, 184)"><g id="0.cr-big_cr_de708vuac07e-fill" stroke="none" fill="#2c2c2c"><g><path d="M 10 70C 10.000003 103.137088 36.862918 130.000003 70.000003 130.000003C 103.137088 130.000003 130.000003 103.137088 130.000003 70.000003C 130.000003 36.862918 103.137088 10.000003 70.000003 10.000003C 36.862918 10.000003 10.000003 36.862918 10.000003 70.000003"></path></g></g></g><g id="g-root-3.cu_sy_8yzz7juabxtv-fill" data-item-order="-94983" transform="translate(147.98345947265625, 99.982666015625)"><g id="3.cu_sy_8yzz7juabxtv-fill" stroke="none" fill="#2c2c2c"><g><path d="M 154.023015 92.4848C 154.023015 93.3138 153.350015 93.9836 152.522015 94.0037C 142.815015 94.2385 133.027015 96.838 124.026015 102.0346C 95.328715 118.603 85.496215 155.299 102.064815 183.996C 102.069615 184.005 102.066715 184.015 102.058415 184.02L 75.736015 199.217C 74.449915 199.96 74.868315 202.331 76.188915 203.01C 78.167515 204.028 79.886415 205.608 81.081615 207.678C 84.395315 213.417 82.428815 220.756 76.689315 224.07C 70.949815 227.384 63.610715 225.417 60.297015 219.678C 59.101815 217.608 58.593515 215.329 58.701415 213.107C 58.773415 211.624 56.928915 210.076 55.642815 210.818L 30.615415 225.268C 29.898015 225.682 28.976415 225.43 28.569615 224.709C -10.147885 156.032 13.585515 68.823 82.024115 29.3099C 104.278615 16.4613 128.537015 10.228 152.523015 10.000068C 153.351015 9.9922 154.021015 10.6644 154.021015 11.4922L 154.022015 40.4161C 154.022015 41.9009 151.760015 42.7243 150.511015 41.9204C 148.640015 40.716 146.414015 40.0173 144.023015 40.0173C 137.396015 40.0173 132.023015 45.3898 132.023015 52.0173C 132.023015 58.6447 137.396015 64.0173 144.023015 64.0173C 146.414015 64.0173 148.641015 63.3184 150.511015 62.1139C 151.760015 61.31 154.022015 62.1332 154.022015 63.6181L 154.023015 92.4848Z"></path></g></g></g><g id="g-root-2.cu_sy_3cyynuabymk-fill" data-item-order="-94979" transform="translate(167.829833984375, 273.99969482421875)"><g id="2.cu_sy_3cyynuabymk-fill" stroke="none" fill="#2c2c2c"><g><path d="M 80.889415 10.76753C 81.607315 10.35303 82.523615 10.60043 82.955315 11.30803C 88.012015 19.59693 95.157115 26.77363 104.158015 31.97023C 132.856015 48.53883 169.551015 38.70633 186.120015 10.00873C 186.124015 10.00043 186.135015 9.99753 186.143015 10.00233L 212.435015 25.18173C 213.725015 25.92673 215.585015 24.36023 215.510015 22.87213C 215.398015 20.64383 215.906015 18.35853 217.105015 16.28253C 220.419015 10.54303 227.758015 8.57653 233.497015 11.89023C 239.237015 15.20393 241.203015 22.54303 237.889015 28.28253C 236.691015 30.35853 234.966015 31.94093 232.980015 32.95833C 231.654015 33.63783 231.227015 36.03143 232.517015 36.77643L 257.586015 51.24993C 258.304015 51.66423 258.547015 52.58803 258.125015 53.30113C 218.008015 121.17003 130.616015 144.22103 62.177715 104.70763C 39.923215 91.85893 22.395715 73.96703 10.205515 53.30893C 9.784815 52.59593 10.031615 51.67913 10.748615 51.26513L 35.797115 36.80273C 37.083115 36.06023 38.927215 37.60773 38.855315 39.09083C 38.747515 41.31293 39.255815 43.59083 40.450915 45.66073C 43.764615 51.40023 51.103715 53.36673 56.843215 50.05303C 62.582715 46.73933 64.549215 39.40023 61.235515 33.66073C 60.040415 31.59073 58.321615 30.01143 56.343115 28.99373C 55.022715 28.31443 54.604615 25.94373 55.890515 25.20133L 80.889415 10.76753Z"></path></g></g></g><g id="g-root-1.cu_sy_3cyynuabyml-fill" data-item-order="-94975" transform="translate(269.96484375, 100.0076904296875)"><g id="1.cu_sy_3cyynuabyml-fill" stroke="none" fill="#2c2c2c"><g><path d="M 85.3315 184.758C 84.6136 184.343 84.3697 183.426 84.7667 182.698C 89.4167 174.175 92.0593 164.398 92.0593 154.005C 92.0593 120.868 65.1964 94.005 32.0593 94.005C 32.0497 94.005 32.0419 93.9972 32.0419 93.9876L 32.0419 63.6288C 32.0419 62.1388 29.7555 61.3116 28.5041 62.1203C 26.6301 63.3312 24.3971 64.0341 22 64.0341C 15.3726 64.0341 10 58.6615 10 52.0341C 10 45.4067 15.3726 40.0341 22 40.0341C 24.3971 40.0341 26.6301 40.737 28.5041 41.9479C 29.7555 42.7565 32.0419 41.9294 32.0419 40.4394L 32.0419 11.4924C 32.0419 10.6639 32.7205 9.9916 33.5488 10.00008C 112.384 10.8083 176.042 74.9663 176.042 153.992C 176.042 179.69 169.311 203.815 157.515 224.701C 157.108 225.422 156.191 225.666 155.474 225.253L 130.425 210.791C 129.139 210.049 129.557 207.678 130.878 206.999C 132.856 205.981 134.575 204.402 135.77 202.332C 139.083 196.592 137.117 189.253 131.377 185.939C 125.638 182.626 118.299 184.592 114.985 190.332C 113.79 192.402 113.282 194.68 113.389 196.902C 113.461 198.385 111.617 199.933 110.331 199.191L 85.3315 184.758Z"></path></g></g></g><g id="g-root-tx_verstndn_1uonitbuabz7q-fill" data-item-order="0" transform="translate(22.0068359375, 28)"><g id="tx_verstndn_1uonitbuabz7q-fill" stroke="none" fill="#f4f4f4"><g><text style="font: bold 25px &quot;Shantell Sans&quot;, cursive; white-space: pre;" font-weight="bold" font-size="25px" font-family="'Shantell Sans', cursive"><tspan x="12.36" y="44.5" dominant-baseline="ideographic">Verständnis der Skalierungsdimensionen</tspan></text></g></g></g><g id="g-root-tx_administ_vcc8ovuaetca-fill" data-item-order="0" transform="translate(-8, 123.9849853515625)"><g id="tx_administ_vcc8ovuaetca-fill" stroke="none" fill="#f4f4f4"><g><text style="font: 20px &quot;Shantell Sans&quot;, cursive; white-space: pre;" font-size="20px" font-family="'Shantell Sans', cursive"><tspan x="23.17" y="35.5" dominant-baseline="ideographic">Administrative </tspan><tspan x="62.87" y="59.5" dominant-baseline="ideographic">Skalierung</tspan></text></g></g></g><g id="g-root-tx_rumliche_8vvlrzuag7wg-fill" data-item-order="0" transform="translate(436.013671875, 124.011962890625)"><g id="tx_rumliche_8vvlrzuag7wg-fill" stroke="none" fill="#f4f4f4"><g><text style="font: 20px &quot;Shantell Sans&quot;, cursive; white-space: pre;" font-size="20px" font-family="'Shantell Sans', cursive"><tspan x="12" y="35.5" dominant-baseline="ideographic">Räumliche </tspan><tspan x="12" y="59.5" dominant-baseline="ideographic">Skalierung</tspan></text></g></g></g><g id="g-root-2_1um5mgvuag64j-fill" data-item-order="0" transform="translate(179.643310546875, 168.95379638671875)"></g><g id="g-root-spac_1cymghruakemn-fill" data-item-order="0" transform="translate(356.37060546875, 168.95330810546875)"></g><g id="g-root-spre_1uonitbuabz7r-fill" data-item-order="0" transform="translate(256.0068359375, 207.99609375)"></g><g id="g-root-scal_18lxbsvuahmo7-fill" data-item-order="0" transform="translate(268.007080078125, 322.003662109375)"></g><g id="g-root-tx_funktion_hrim0vuag6bx-fill" data-item-order="0" transform="translate(226.0068359375, 399.9405517578125)"><g id="tx_funktion_hrim0vuag6bx-fill" stroke="none" fill="#f4f4f4"><g><text style="font: 20px &quot;Shantell Sans&quot;, cursive; white-space: pre;" font-size="20px" font-family="'Shantell Sans', cursive"><tspan x="16.29" y="35.5" dominant-baseline="ideographic">Funktionale </tspan><tspan x="22.02" y="59.5" dominant-baseline="ideographic">Skalierung</tspan></text></g></g></g><g id="g-root-tf_1hgbdvjualslg-stroke" data-item-order="-290277" transform="translate(-8, -8)"></g><g id="g-root-0.cr-big_cr_de708vuac07e-stroke" data-item-order="-94987" transform="translate(232.0068359375, 184)"><g id="0.cr-big_cr_de708vuac07e-stroke" fill="none" stroke-linecap="round" stroke-linejoin="round" stroke-miterlimit="4" stroke="#f4f4f4" stroke-width="4"><g><path d="M 10 70C 9 85.1 14.9 99.5 24.8 109.5C 36.6 121.3 52 129.6 70 130C 87.4 130.4 103.4 122.9 114 110.8C 123.6 99.8 129.2 85.7 130 70C 130.9 52.9 121.5 38.6 111.3 26.5C 101.7 15.1 86 9.6 70 10C 53.8 10.4 39 16.3 28.4 26.8C 17.2 37.8 9.7 53 10 70"></path><path d="M 10 70C 10.000003 103.137088 36.862918 130.000003 70.000003 130.000003C 103.137088 130.000003 130.000003 103.137088 130.000003 70.000003C 130.000003 36.862918 103.137088 10.000003 70.000003 10.000003C 36.862918 10.000003 10.000003 36.862918 10.000003 70.000003"></path></g></g></g><g id="g-root-3.cu_sy_8yzz7juabxtv-stroke" data-item-order="-94983" transform="translate(147.98345947265625, 99.982666015625)"><g id="3.cu_sy_8yzz7juabxtv-stroke" fill="none" stroke-linecap="round" stroke-linejoin="round" stroke-miterlimit="4" stroke="#f4f4f4" stroke-width="4"><g><path d="M 154.023361 92.517334C 154.023361 93.317334 153.323361 94.217334 152.523361 94.017334C 143.123361 91.717334 133.723361 98.317334 124.023361 102.017334C 93.123361 113.917334 86.723361 154.617334 102.023361 184.017334C 94.323361 190.617334 84.723361 194.517334 75.723361 199.217334C 74.423361 199.917334 74.723361 202.817334 76.223361 203.017334C 78.423361 203.317334 79.723361 205.717334 81.123361 207.717334C 84.823361 213.217334 82.423361 220.717334 76.723361 224.117334C 70.923361 227.417334 64.123361 225.017334 60.323361 219.717334C 58.923361 217.717334 59.423361 215.217334 58.723361 213.117334C 58.223361 211.717334 56.623361 209.717334 55.623361 210.817334C 49.223361 218.017334 38.823361 220.317334 30.623361 225.317334C 29.923361 225.717334 29.123361 225.317334 28.523361 224.717334C 20.923361 215.017334 16.823361 203.117334 14.923361 191.417334C 12.923361 179.017334 10.823361 166.817334 10.023361 154.517334C 9.123361 141.317334 10.423361 127.617334 15.323361 115.417334C 19.823361 104.217334 22.023361 91.717334 29.323361 81.917334C 36.423361 72.417334 43.023361 62.517334 50.923361 53.417334C 59.423361 43.617334 69.923361 35.317334 82.023361 29.317334C 105.023361 17.917334 128.523361 9.717334 152.523361 10.017334C 153.323361 10.017334 154.123361 10.617334 154.023361 11.517334C 152.923361 21.117334 152.123361 30.917334 154.023361 40.417334C 154.323361 41.917334 151.923361 42.417334 150.523361 41.917334C 148.423361 41.217334 146.423361 40.317334 144.023361 40.017334C 137.423361 39.217334 131.823361 45.417334 132.023361 52.017334C 132.223361 58.617334 137.423361 64.917334 144.023361 64.017334C 146.423361 63.717334 148.623361 63.417334 150.523361 62.117334C 151.723361 61.317334 154.523361 62.217334 154.023361 63.617334C 150.923361 72.717334 153.023361 82.917334 154.023361 92.517334"></path><path d="M 154.022715 92.4848C 154.022715 93.3138 153.350315 93.9836 152.521615 94.0037C 142.814915 94.2385 133.027215 96.838 124.026315 102.0346C 95.328715 118.6032 85.496215 155.2986 102.064815 183.9962C 102.069615 184.0045 102.066715 184.0152 102.058415 184.02L 75.736015 199.2172C 74.449915 199.9597 74.868315 202.3312 76.188915 203.0105C 78.167515 204.0282 79.886415 205.6076 81.081615 207.6777C 84.395315 213.4172 82.428815 220.7563 76.689315 224.07C 70.949815 227.3837 63.610715 225.4172 60.297015 219.6777C 59.101815 217.6076 58.593515 215.3293 58.701415 213.1069C 58.773415 211.6236 56.928915 210.0755 55.642815 210.818L 30.615415 225.2676C 29.898015 225.6818 28.976415 225.4303 28.569615 224.7087C -10.147885 156.0315 13.585515 68.823 82.024115 29.3099C 104.278615 16.4613 128.537215 10.228 152.522815 10.0001C 153.350615 9.9922 154.021115 10.6644 154.021115 11.4922L 154.021715 40.4161C 154.021715 41.9009 151.759515 42.7243 150.511015 41.9204C 148.640515 40.716 146.413615 40.0173 144.023515 40.0173C 137.396015 40.0173 132.023515 45.3898 132.023515 52.0173C 132.023515 58.6447 137.396015 64.0173 144.023515 64.0173C 146.413715 64.0173 148.640815 63.3184 150.511415 62.1139C 151.759915 61.31 154.022115 62.1332 154.022115 63.6181L 154.022715 92.4848Z"></path></g></g></g><g id="g-root-2.cu_sy_3cyynuabymk-stroke" data-item-order="-94979" transform="translate(167.829833984375, 273.99969482421875)"><g id="2.cu_sy_3cyynuabymk-stroke" fill="none" stroke-linecap="round" stroke-linejoin="round" stroke-miterlimit="4" stroke="#f4f4f4" stroke-width="4"><g><path d="M 80.877002 10.800305C 81.677002 10.500305 82.577002 10.600305 82.977002 11.300305C 87.577002 19.800305 94.377002 28.500305 104.177002 32.000305C 120.377002 37.700305 136.077002 42.200305 151.177002 37.500305C 165.377002 33.200305 176.777002 23.000305 186.077002 10.000305C 195.177002 14.600305 203.577002 20.300305 212.477002 25.200305C 213.777002 25.900305 215.677002 24.400305 215.477002 22.900305C 215.277002 20.700305 215.677002 18.200305 217.077002 16.300305C 221.077002 11.000305 227.477002 9.000305 233.477002 11.900305C 239.477002 14.700305 241.977002 23.100305 237.877002 28.300305C 236.377002 30.200305 235.077002 32.100305 232.977002 33.000305C 231.577002 33.500305 231.477002 35.800305 232.477002 36.800305C 239.577002 43.400305 249.277002 46.400305 257.577002 51.200305C 258.277002 51.700305 258.577002 52.600305 258.077002 53.300305C 250.477002 66.200305 240.577002 76.900305 230.577002 87.000305C 220.277002 97.400305 207.777002 105.400305 194.477002 110.800305C 179.677002 116.800305 164.477002 123.300305 148.577002 123.300305C 133.577002 123.300305 118.577002 124.000305 103.677002 120.800305C 89.477002 117.700305 75.277002 112.800305 62.177002 104.700305C 40.277002 91.200305 21.877002 74.300305 10.177002 53.300305C 9.777002 52.600305 9.977002 51.500305 10.777002 51.300305C 19.877002 48.200305 27.277002 41.300305 35.777002 36.800305C 37.077002 36.100305 38.677002 37.600305 38.877002 39.100305C 39.077002 41.300305 39.177002 43.600305 40.477002 45.700305C 43.877002 51.300305 52.077002 54.700305 56.877002 50.100305C 61.577002 45.400305 64.977002 39.200305 61.277002 33.700305C 59.877002 31.700305 58.177002 30.300305 56.377002 29.000305C 55.177002 28.100305 54.977002 26.300305 55.877002 25.200305C 62.077002 17.800305 72.077002 14.700305 80.877002 10.800305"></path><path d="M 80.889415 10.76753C 81.607315 10.35303 82.523615 10.60043 82.955315 11.30803C 88.012015 19.59693 95.157115 26.77363 104.158015 31.97023C 132.855615 48.53883 169.551015 38.70633 186.119615 10.00873C 186.124415 10.00043 186.135015 9.99753 186.143415 10.00233L 212.434915 25.18173C 213.725215 25.92673 215.584715 24.36023 215.510115 22.87213C 215.398415 20.64383 215.906215 18.35853 217.104815 16.28253C 220.418515 10.54303 227.757615 8.57653 233.497115 11.89023C 239.236615 15.20393 241.203115 22.54303 237.889415 28.28253C 236.690815 30.35853 234.965615 31.94093 232.980015 32.95833C 231.653915 33.63783 231.227115 36.03143 232.517415 36.77643L 257.586315 51.24993C 258.303815 51.66423 258.546815 52.58803 258.125215 53.30113C 218.007815 121.17003 130.616315 144.22063 62.177715 104.70763C 39.923215 91.85893 22.395715 73.96703 10.205515 53.30893C 9.784815 52.59593 10.031615 51.67913 10.748615 51.26513L 35.797115 36.80273C 37.083115 36.06023 38.927215 37.60773 38.855315 39.09083C 38.747515 41.31293 39.255815 43.59083 40.450915 45.66073C 43.764615 51.40023 51.103715 53.36673 56.843215 50.05303C 62.582715 46.73933 64.549215 39.40023 61.235515 33.66073C 60.040415 31.59073 58.321615 30.01143 56.343115 28.99373C 55.022715 28.31443 54.604615 25.94373 55.890515 25.20133L 80.889415 10.76753Z"></path></g></g></g><g id="g-root-1.cu_sy_3cyynuabyml-stroke" data-item-order="-94975" transform="translate(269.96484375, 100.0076904296875)"><g id="1.cu_sy_3cyynuabyml-stroke" fill="none" stroke-linecap="round" stroke-linejoin="round" stroke-miterlimit="4" stroke="#f4f4f4" stroke-width="4"><g><path d="M 85.341992 184.79231C 84.641992 184.39231 84.341992 183.39231 84.741992 182.69231C 89.841992 174.39231 91.841992 164.39231 92.041992 153.99231C 92.341992 137.69231 85.441992 122.89231 74.941992 111.99231C 64.141992 100.79231 48.841992 93.89231 32.041992 93.99231C 32.941992 83.89231 30.341992 73.59231 32.041992 63.59231C 32.341992 62.19231 29.741992 61.39231 28.541992 62.09231C 26.541992 63.29231 24.241992 64.79231 22.041992 63.99231C 15.741992 61.99231 9.641992 58.69231 10.041992 51.99231C 10.441992 45.39231 15.441992 39.29231 22.041992 39.99231C 24.341992 40.29231 26.741992 40.59231 28.541992 41.99231C 29.741992 42.79231 32.441992 41.89231 32.041992 40.39231C 29.341992 31.19231 31.041992 21.09231 32.041992 11.49231C 32.141992 10.69231 32.741992 9.99231 33.541992 9.99231C 47.441992 10.29231 60.741992 12.69231 73.541992 16.09231C 86.241992 19.49231 98.541992 24.49231 108.841992 32.19231C 118.941992 39.69231 128.441992 47.79231 137.641992 56.09231C 145.941992 63.59231 152.341992 72.99231 157.341992 82.99231C 162.841992 93.99231 168.141992 105.19231 171.341992 117.39231C 174.441992 129.09231 176.341992 141.39231 176.041992 153.99231C 175.341992 179.69231 167.741992 202.99231 157.541992 224.69231C 157.141992 225.49231 156.141992 225.79231 155.441992 225.29231C 147.941992 219.19231 138.341992 216.29231 130.441992 210.79231C 129.241992 209.99231 129.741992 207.99231 130.841992 206.99231C 132.541992 205.59231 135.041992 204.59231 135.741992 202.29231C 137.841992 196.09231 137.441992 188.49231 131.341992 185.89231C 125.241992 183.29231 118.541992 184.79231 114.941992 190.29231C 113.741992 192.39231 113.241992 194.69231 113.341992 196.89231C 113.441992 198.39231 111.741992 199.49231 110.341992 199.19231C 100.941992 197.19231 94.441992 187.99231 85.341992 184.79231"></path><path d="M 85.3315 184.7576C 84.6136 184.3431 84.3697 183.4259 84.7667 182.6982C 89.4167 174.1745 92.0593 164.3984 92.0593 154.005C 92.0593 120.8679 65.1964 94.005 32.0593 94.005C 32.0497 94.005 32.0419 93.9972 32.0419 93.9876L 32.0419 63.6288C 32.0419 62.1388 29.7555 61.3116 28.5041 62.1203C 26.6301 63.3312 24.3971 64.0341 22 64.0341C 15.3726 64.0341 10 58.6615 10 52.0341C 10 45.4067 15.3726 40.0341 22 40.0341C 24.3971 40.0341 26.6301 40.737 28.5041 41.9479C 29.7555 42.7565 32.0419 41.9294 32.0419 40.4394L 32.0419 11.4924C 32.0419 10.6639 32.7205 9.9916 33.5488 10.0001C 112.3837 10.8083 176.0419 74.9663 176.0419 153.9924C 176.0419 179.6897 169.3107 203.8149 157.5154 224.701C 157.1083 225.4218 156.1909 225.6664 155.474 225.2525L 130.425 210.7912C 129.1391 210.0488 129.5572 207.6779 130.8776 206.9986C 132.8559 205.9808 134.5745 204.4017 135.7696 202.3317C 139.0833 196.5922 137.1168 189.2531 131.3773 185.9394C 125.6377 182.6257 118.2987 184.5922 114.985 190.3317C 113.7898 192.4018 113.2815 194.6799 113.3894 196.9022C 113.4613 198.3854 111.6172 199.933 110.3313 199.1906L 85.3315 184.7576Z"></path></g></g></g><g id="g-root-tx_verstndn_1uonitbuabz7q-stroke" data-item-order="0" transform="translate(22.0068359375, 28)"></g><g id="g-root-tx_administ_vcc8ovuaetca-stroke" data-item-order="0" transform="translate(-8, 123.9849853515625)"></g><g id="g-root-tx_rumliche_8vvlrzuag7wg-stroke" data-item-order="0" transform="translate(436.013671875, 124.011962890625)"></g><g id="g-root-2_1um5mgvuag64j-stroke" data-item-order="0" transform="translate(179.643310546875, 168.95379638671875)"><g id="2_1um5mgvuag64j-stroke" fill="none" stroke-linecap="round" stroke-linejoin="round" stroke-miterlimit="4" stroke="#f4f4f4" stroke-width="2"><g><path d="M 11.4 37.599998C 13.4 29 10.4 20.200001 11.4 11.6C 26.4 13.8 41.799999 14.4 56.599998 11.6C 57.799999 20 57.200001 28.799999 56.599998 37.599998M 22 11.6C 21.799999 11.6 21.4 30.799999 11.4 28C 11.4 28 17.200001 28.200001 18.4 37.400002M 46.200001 11.6C 46 11.6 46.200001 27.200001 56.599998 28C 56.599998 28 50.599998 28.200001 49.599998 37.400002M 31 20.4C 31.799999 19.4 33 18.4 34 17.6C 35 18.6 35.799999 19.799999 37 20.4M 34 17.6C 32.400002 23.6 34.599998 29.799999 34 36M 10 10M 22.4 29.4C 23.799999 31.6 26.6 32.200001 28.4 34M 43.599998 31C 43.599998 31 41.200001 24.200001 34 25C 26.799999 25.799999 24.4 31 24.4 31M 45.599998 29.4C 44 31.4 41.400002 32.200001 39.599998 34M 17 51C 19.4 51 20.6 49 21 47C 21.6 44.799999 19.200001 43.599998 17 43C 15 42.200001 13.4 44.799999 13 47C 12.8 49 15 50.400002 17 51M 11.4 56.599998C 11.8 53.599998 14 50.799999 17.200001 51C 20.200001 51 22.200001 53.400002 22.6 56.599998M 34 51C 36.200001 50.599998 38.799999 49 38 47C 37.200001 44.799999 36.200001 42.799999 34 43C 31.799999 43 30.4 44.799999 30 47C 29.6 49 32 50 34 51M 28.4 56.599998C 27.6 53.599998 30.799999 51.599998 34 51C 37.200001 50.200001 39.400002 53.200001 39.599998 56.599998M 51 51C 53 51 55.200001 49 55 47C 54.599998 44.799999 53 42.799999 51 43C 48.599998 43 46.799999 44.799999 47 47C 47 49.200001 48.799999 51.200001 51 51M 45.400002 56.599998C 46 53.599998 47.799999 50.200001 51 51C 54 51.599998 55.799999 53.400002 56.599998 56.599998"></path><path d="M 11.499978 37.5L 11.499978 11.5L 56.5 11.5L 56.5 37.5M 21.9 11.5C 21.9 11.5 21.899979 27.900021 11.499978 27.900021C 11.499978 27.900021 18.499981 28.10004 18.499981 37.299999M 46.099998 11.5C 46.099998 11.5 46.099998 27.900021 56.5 27.900021C 56.5 27.900021 49.5 28.10004 49.5 37.299999M 31 20.400021L 34 17.599979L 37 20.400021M 34 17.599979L 34 36M 10 10M 22.400021 29.400021L 28.400021 34M 43.599998 31C 43.599998 31 41.200001 25 34 25C 26.799999 25 24.400021 31 24.400021 31M 45.599998 29.400021L 39.599998 34M 17.099979 50.900002C 19.30912 50.900002 21.099979 49.1092 21.099979 46.900002C 21.099979 44.6908 19.30912 42.900002 17.099979 42.900002C 14.890841 42.900002 13.09998 44.6908 13.09998 46.900002C 13.09998 49.1092 14.890841 50.900002 17.099979 50.900002ZM 11.499978 56.5C 11.499978 53.5 13.90002 50.900002 17.100019 50.900002C 20.30002 50.900002 22.69998 53.299999 22.69998 56.5M 34 50.900002C 36.209198 50.900002 38 49.1092 38 46.900002C 38 44.6908 36.209198 42.900002 34 42.900002C 31.7908 42.900002 30 44.6908 30 46.900002C 30 49.1092 31.7908 50.900002 34 50.900002ZM 28.400021 56.5C 28.400021 53.5 30.799999 50.900002 34 50.900002C 37.200001 50.900002 39.599998 53.299999 39.599998 56.5M 50.900002 50.900002C 53.1092 50.900002 54.900002 49.1092 54.900002 46.900002C 54.900002 44.6908 53.1092 42.900002 50.900002 42.900002C 48.6908 42.900002 46.900002 44.6908 46.900002 46.900002C 46.900002 49.1092 48.6908 50.900002 50.900002 50.900002ZM 45.299999 56.5C 45.299999 53.5 47.700001 50.900002 50.900002 50.900002C 54.099998 50.900002 56.5 53.299999 56.5 56.5"></path></g></g></g><g id="g-root-spac_1cymghruakemn-stroke" data-item-order="0" transform="translate(356.37060546875, 168.95330810546875)"><g id="spac_1cymghruakemn-stroke" fill="none" stroke-linecap="round" stroke-linejoin="round" stroke-miterlimit="4" stroke="#f4f4f4" stroke-width="2"><g><path d="M 55 38.799999C 55.799999 35.400002 53.200001 32.799999 50.799999 30.4C 48.400002 28 43.599998 27.799999 41.200001 30.4C 39 32.799999 37.799999 35.400002 37 38.799999C 37.400002 44.799999 36 51 37 57C 42.799999 58.599998 49 58 55 57C 56.400002 51 55.799999 44.799999 55 38.799999M 39 18C 37.599998 21.6 42.200001 25.799999 46 25C 49.799999 24.200001 52.200001 21.799999 53 18C 53.799999 14.2 49.799999 11.2 46 11C 42.200001 10.8 39.200001 14.2 39 18M 25 18C 25.799999 20.6 27.200001 23.4 30 23C 32.799999 22.6 34.400002 20.6 35 18C 35.599998 15.4 32.799999 13 30 13C 27.200001 13 24.6 15.2 25 18M 15 18C 14.8 19.6 16.4 21.6 18 21C 19.6 20.6 21 19.6 21 18C 21 16.4 19.6 14.6 18 15C 16.4 15.4 14.6 16.4 15 18M 23 34C 22.6 30.200001 26.4 25.799999 30 27C 33.599998 28.200001 37.799999 30.200001 37 34C 36 39 37.400002 44 37 49C 32.400002 49.799999 27.4 47.400002 23 49C 24.6 44.200001 23.799999 39 23 34M 13 30C 12 27.4 15.2 24.799999 18 25C 20.799999 25.200001 23.6 27.200001 23 30C 22.4 33 23.799999 36 23 39C 19.6 38.599998 16.4 38.599998 13 39C 13 36 12.6 33 13 30"></path><path d="M 55 38.778C 55.277088 35.387177 53.624859 32.128418 50.725849 30.347918C 47.826839 28.567417 44.173161 28.567417 41.274147 30.347918C 38.375137 32.128418 36.722908 35.387177 37 38.778L 37 57L 55 57ZM 39.006001 18C 39.006004 21.865993 42.140007 25 46.006001 25C 49.871994 25 53.006001 21.865993 53.006001 18C 53.006001 14.134007 49.871994 11 46.006001 11C 42.140007 11 39.006004 14.134007 39.006004 18ZM 25.006001 18C 25.006001 20.761425 27.244577 23 30.006001 23C 32.767426 23 35.006001 20.761425 35.006001 18C 35.006001 15.238577 32.767426 13 30.006001 13C 27.244577 13 25.006001 15.238577 25.006001 18ZM 15.006001 18C 15.006001 19.656855 16.349146 21 18.006001 21C 19.662853 21 21.006001 19.656855 21.006001 18C 21.006001 16.343145 19.662853 15 18.006001 15C 16.349146 15 15.006001 16.343145 15.006001 18ZM 23 34C 23 30.134008 26.134008 27.000002 30 27.000002C 33.865993 27.000002 37 30.134008 37 34L 37 49L 23 49ZM 13 30C 13 27.238577 15.238577 25 18 25C 20.761425 25 23 27.238577 23 30L 23 39L 13 39Z"></path></g></g></g><g id="g-root-spre_1uonitbuabz7r-stroke" data-item-order="0" transform="translate(256.0068359375, 207.99609375)"><g id="spre_1uonitbuabz7r-stroke" fill="none" stroke-linecap="round" stroke-linejoin="round" stroke-miterlimit="4" stroke="#f4f4f4" stroke-width="2"><g><path d="M 51.400002 13C 54.400002 12.4 58 15.7 57.400002 19C 56.5 21.4 56.800003 24.099998 57.400002 26.5C 42.400002 28.299999 27.099998 28.299999 12.4 26.5C 11.2 24.099998 11.8 21.4 12.4 19C 12.7 15.7 15.1 13.3 18.4 13C 29.200001 11.5 40.300003 13 51.400002 13M 27.400002 26.5C 27.400002 36.400002 30.400002 46.599998 27.400002 55.900002C 24.400002 55.599998 21.4 55.900002 18.4 55.900002C 15.1 55.900002 12.4 53.199997 12.4 49.900002C 12.1 42.099998 13.3 34.300003 12.4 26.5C 16.9 28.299999 22.299999 25.599998 27.400002 26.5M 12.4 41.5C 17.200001 42.099998 22.599998 43 27.400002 41.5M 42.400002 26.5C 37.300003 26.200001 32.200001 26.5 27.400002 26.5C 27.700001 36.400002 25.299999 46.300003 27.400002 55.900002C 31.900002 57.400002 37.300003 55.300003 42.400002 55.900002C 41.5 46 43.599998 36.099998 42.400002 26.5M 27.400002 41.5C 32.200001 42.099998 37.300003 40.300003 42.400002 41.5M 57.400002 26.5C 57.099998 34.300003 56.199997 42.099998 57.400002 49.900002C 57.699997 53.199997 54.400002 56.800003 51.400002 55.900002C 48.400002 55 45.099998 56.5 42.400002 55.900002C 42.099998 46 42.099998 36.400002 42.400002 26.5C 47.199997 25.900002 52.300003 26.5 57.400002 26.5M 42.400002 41.5C 46.900002 40 52.300003 42.400002 57.400002 41.5M 10 10M 73.300003 20.5C 72.100006 29.5 72.399994 38.5 73.300003 47.5M 10 10M 66.399994 47.5C 68.800003 49.300003 71.5 51.699997 73.300003 54.400002C 74.5 51.400002 77.5 49.599998 79.899994 47.5M 10 10M 66.399994 20.5C 68.800003 18.4 71.5 16.299999 73.300003 13.6C 75.399994 15.7 77.5 18.4 79.899994 20.5M 10 10M 21.1 71.800003C 30.099998 71.800003 39.099998 73 48.400002 71.800003M 10 10M 48.400002 64.899994C 50.5 67.300003 52.900002 69.399994 55 71.800003C 52.900002 74.199997 50.5 76.300003 48.400002 78.699997M 10 10M 21.1 64.899994C 18.1 66.399994 16.299999 69.399994 14.5 71.800003C 16.6 74.199997 18.700001 76.300003 21.1 78.699997"></path><path d="M 51.25 13.00072C 54.550003 13.00072 57.25 15.70072 57.25 19.000721L 57.25 26.500719L 12.25 26.500719L 12.25 19.000721C 12.25 15.70072 14.95 13.00072 18.25 13.00072L 51.25 13.00072ZM 27.25 26.50036L 27.25 55.900299L 18.25 55.900299C 14.95 55.900299 12.25 53.200298 12.25 49.900299L 12.25 26.50036L 27.25 26.50036ZM 12.25 41.500301L 27.25 41.500301M 42.25 26.50036L 27.25 26.50036L 27.25 55.900299L 42.25 55.900299L 42.25 26.50036ZM 27.25 41.500301L 42.25 41.500301M 57.25 26.50036L 57.25 49.900299C 57.25 53.200298 54.550003 55.900299 51.25 55.900299L 42.25 55.900299L 42.25 26.50036L 57.25 26.50036ZM 42.25 41.500301L 57.25 41.500301M 10 10M 73.149994 20.500721L 73.149994 47.500301M 10 10M 66.25 47.500301L 73.149994 54.400299L 79.75 47.500301M 10 10M 66.25 20.50054L 73.149994 13.6006L 79.75 20.50054M 10 10M 20.950031 71.800301L 48.25 71.800301M 10 10M 48.25 64.899994L 54.849998 71.800003L 48.25 78.699997M 10 10M 20.950031 64.899994L 14.35003 71.800003L 20.950031 78.699997"></path></g></g></g><g id="g-root-scal_18lxbsvuahmo7-stroke" data-item-order="0" transform="translate(268.007080078125, 322.003662109375)"><g id="scal_18lxbsvuahmo7-stroke" fill="none" stroke-linecap="round" stroke-linejoin="round" stroke-miterlimit="4" stroke="#f4f4f4" stroke-width="2"><g><path d="M 48 26C 48.799999 29.200001 48.200001 32.599998 48 36C 47 38.400002 29.4 42.200001 20 42C 19.6 38.599998 20.6 35.200001 20 32C 29.200001 29.6 48.599998 28.6 48 26M 48 11C 48.200001 14.4 48.200001 17.6 48 21C 47.599998 23.6 29.4 28.200001 20 27C 21 23.799999 20.4 20.4 20 17C 29.200001 19 47.799999 13.8 48 11M 42.799999 23.6C 42.799999 23.6 47 23.6 48 26M 20 27C 25.200001 27.200001 30.200001 29 35.200001 30.4M 48 41C 47.200001 44.200001 48.599998 47.799999 48 51C 46.400002 53.200001 29.4 57 20 57C 20.4 53.599998 18.799999 50 20 47C 29.4 46.400002 48 43.799999 48 41M 42.799999 38.599998C 42.799999 38.599998 48.400002 38.400002 48 41M 20 42C 25.200001 42.799999 30 46 35.200001 45.400002"></path><path d="M 48 26L 48 36C 47.439999 38.639999 29.48 42 20 42L 20 32C 29.48 32 48 28.719999 48 26ZM 48 11L 48 21C 47.439999 23.639999 29.48 27 20 27L 20 17C 29.48 17 48 13.72 48 11ZM 42.799999 23.66C 42.799999 23.66 48 23.380001 48 26M 20 27L 35.18 30.459999M 48 41L 48 51C 47.439999 53.639999 29.48 57 20 57L 20 47C 29.48 47 48 43.720001 48 41ZM 42.799999 38.66C 42.799999 38.66 48 38.379997 48 41M 20 42L 35.18 45.459999"></path></g></g></g><g id="g-root-tx_funktion_hrim0vuag6bx-stroke" data-item-order="0" transform="translate(226.0068359375, 399.9405517578125)"></g></g></g></svg>