<?xml version="1.0" encoding="utf-8" standalone="yes"?>
<!DOCTYPE svg PUBLIC "-//W3C//DTD SVG 1.1//EN" "http://www.w3.org/Graphics/SVG/1.1/DTD/svg11.dtd">
<svg width="942" height="594" viewBox="0 0 942 594" style="fill:none;stroke:none;fill-rule:evenodd;clip-rule:evenodd;stroke-linecap:round;stroke-linejoin:round;stroke-miterlimit:1.5;" version="1.1" xmlns="http://www.w3.org/2000/svg" xmlns:xlink="http://www.w3.org/1999/xlink"><style class="text-font-style fontImports" data-font-family="Roboto">@import url('https://fonts.googleapis.com/css2?family=Roboto:wght@400;700&amp;display=block');</style><g id="items" style="isolation: isolate"><g id="blend" style="mix-blend-mode: normal"><g id="g-root--1.g-0c_fr_1cu94rtukd05e-fill" data-item-order="-519830" transform="translate(509.462890625, 309.8839111328125)"></g><g id="g-root--1.g-0b_fr_13z8lm1ukcxsc-fill" data-item-order="-519826" transform="translate(408, 192.0009765625)"></g><g id="g-root--1.g-0a_fr_13z8lm1ukcxse-fill" data-item-order="-519822" transform="translate(209.99099731445312, 314.82501220703125)"></g><g id="g-root-3.g-3_fr_zjf3hlukcyko-fill" data-item-order="-519818" transform="translate(615.6366577148438, 299.7548828125)"></g><g id="g-root-2.g-2_fr_zjf3hlukcykq-fill" data-item-order="-519814" transform="translate(197.90481567382812, 302.90338134765625)"></g><g id="g-root-1.g-1_fr_zjf3hlukcyks-fill" data-item-order="-519810" transform="translate(398, 181.9970703125)"></g><g id="g-root-tx_effizien_v3lld5ukczd2-fill" data-item-order="0" transform="translate(230, 2)"><g id="tx_effizien_v3lld5ukczd2-fill" stroke="none" fill="#f4f4f4"><g><text style="font: 20px Roboto, sans-serif; white-space: pre;" font-size="20px" font-family="Roboto, sans-serif"><tspan x="16.66" y="34" dominant-baseline="ideographic">Effiziente Zusammenarbeit in Verteilten Systemen</tspan></text></g></g></g><g id="g-root-tx_netzwerk_1ulj59lukeebx-fill" data-item-order="0" transform="translate(338, 50)"><g id="tx_netzwerk_1ulj59lukeebx-fill" stroke="none" fill="#f4f4f4"><g><text style="font: bold 20px Roboto, sans-serif; white-space: pre;" font-weight="bold" font-size="20px" font-family="Roboto, sans-serif"><tspan x="17.17" y="34" dominant-baseline="ideographic">Netzwerkkommunikation</tspan></text></g></g></g><g id="g-root-tx_derproze_1q6c489ukebyf-fill" data-item-order="0" transform="translate(374, 86)"><g id="tx_derproze_1q6c489ukebyf-fill" stroke="none" fill="#f4f4f4"><g><text style="font: 15px Roboto, sans-serif; white-space: pre;" font-size="15px" font-family="Roboto, sans-serif"><tspan x="15.59" y="28" dominant-baseline="ideographic">Der Prozess, durch den </tspan><tspan x="37.64" y="46" dominant-baseline="ideographic">Computer Daten </tspan><tspan x="34.97" y="64" dominant-baseline="ideographic">austauschen und </tspan><tspan x="50.69" y="82" dominant-baseline="ideographic">interagieren.</tspan></text></g></g></g><g id="g-root-tx_unabhngi_1lqim3tukecqo-fill" data-item-order="0" transform="translate(2, 236)"><g id="tx_unabhngi_1lqim3tukecqo-fill" stroke="none" fill="#f4f4f4"><g><text style="font: bold 20px Roboto, sans-serif; white-space: pre;" font-weight="bold" font-size="20px" font-family="Roboto, sans-serif"><tspan x="57.58" y="34" dominant-baseline="ideographic">Unabhängige </tspan><tspan x="86.94" y="58" dominant-baseline="ideographic">Computer</tspan></text></g></g></g><g id="g-root-tx_koordini_dbp3s9ukec5q-fill" data-item-order="0" transform="translate(746, 236)"><g id="tx_koordini_dbp3s9ukec5q-fill" stroke="none" fill="#f4f4f4"><g><text style="font: bold 20px Roboto, sans-serif; white-space: pre;" font-weight="bold" font-size="20px" font-family="Roboto, sans-serif"><tspan x="12" y="34" dominant-baseline="ideographic">Koordinierte </tspan><tspan x="12" y="58" dominant-baseline="ideographic">Zusammenarbeit</tspan></text></g></g></g><g id="g-root-tx_einzelne_1lqim3tukecqp-fill" data-item-order="0" transform="translate(2, 296)"><g id="tx_einzelne_1lqim3tukecqp-fill" stroke="none" fill="#f4f4f4"><g><text style="font: 15px Roboto, sans-serif; white-space: pre;" font-size="15px" font-family="Roboto, sans-serif"><tspan x="16.64" y="28" dominant-baseline="ideographic">Einzelne Maschinen, die </tspan><tspan x="19.33" y="46" dominant-baseline="ideographic">zusammenarbeiten, um </tspan><tspan x="24.55" y="64" dominant-baseline="ideographic">ein kohärentes System </tspan><tspan x="112.19" y="82" dominant-baseline="ideographic">zu bilden.</tspan></text></g></g></g><g id="g-root-tx_diesynch_8vvlntukecy1-fill" data-item-order="0" transform="translate(740, 296)"><g id="tx_diesynch_8vvlntukecy1-fill" stroke="none" fill="#f4f4f4"><g><text style="font: 15px Roboto, sans-serif; white-space: pre;" font-size="15px" font-family="Roboto, sans-serif"><tspan x="12" y="28" dominant-baseline="ideographic">Die Synchronisation </tspan><tspan x="12" y="46" dominant-baseline="ideographic">zwischen Komponenten, </tspan><tspan x="12" y="64" dominant-baseline="ideographic">um gemeinsame Ziele zu </tspan><tspan x="12" y="82" dominant-baseline="ideographic">erreichen.</tspan></text></g></g></g><g id="g-root-netw_qns38pukd05c-fill" data-item-order="0" transform="translate(422, 440)"></g><g id="g-root-tx_verteilt_m7yl49ukd05r-fill" data-item-order="0" transform="translate(374, 524)"><g id="tx_verteilt_m7yl49ukd05r-fill" stroke="none" fill="#d3d3d3"><g><text style="font: bold 20px Roboto, sans-serif; white-space: pre;" font-weight="bold" font-size="20px" font-family="Roboto, sans-serif"><tspan x="13.84" y="34" dominant-baseline="ideographic">Verteilte Systeme</tspan></text></g></g></g><g id="g-root--1.g-0c_fr_1cu94rtukd05e-stroke" data-item-order="-519830" transform="translate(509.462890625, 309.8839111328125)"><g id="-1.g-0c_fr_1cu94rtukd05e-stroke" fill="none" stroke-linecap="round" stroke-linejoin="round" stroke-miterlimit="4" stroke="#f4f4f4" stroke-width="2"><g><path d="M 123.220169 92.542674C 121.563369 89.672874 117.893769 88.689674 115.024069 90.346474L 14.566369 148.345774L 14.565069 148.346574L 35.855669 154.051274C 36.922569 154.337174 38.019269 153.704074 38.305169 152.637074L 41.081769 142.274774L 48.477669 144.256474C 48.990069 144.393774 49.535969 144.321874 49.995369 144.056674L 53.756569 141.885074C 54.215969 141.619874 54.551169 141.183074 54.688469 140.670674L 56.670169 133.274774L 66.798169 135.988474C 67.310569 136.125774 67.856469 136.053974 68.315869 135.788674L 73.809169 132.617174C 74.268569 132.351974 74.603769 131.915074 74.740969 131.402674L 77.454769 121.274774L 83.719069 122.953274C 84.786069 123.239174 85.882669 122.605974 86.168569 121.539074L 87.847069 115.274774L 95.243069 117.256474C 95.755469 117.393774 96.301369 117.321874 96.760669 117.056674L 100.521969 114.885074C 100.981369 114.619874 101.316569 114.183074 101.453869 113.670674L 103.435569 106.274674L 109.699869 107.953274C 110.766769 108.239174 111.863469 107.605974 112.149369 106.539074L 113.827869 100.274674L 121.223869 102.256474C 121.736169 102.393774 122.282069 102.321874 122.741469 102.056674L 127.220169 99.470874L 123.220169 92.542674ZM 110.621769 76.722674C 108.964869 73.852974 105.295369 72.869674 102.425569 74.526574L 14.958169 125.025874L 14.957069 125.026574L 10.565869 141.418174L 108.425569 84.918874C 111.295369 83.261974 112.278569 79.592474 110.621769 76.722674ZM 115.024069 90.346474C 117.893769 88.689674 121.563369 89.672874 123.220169 92.542674L 127.220169 99.470874L 130.685369 105.470574C 132.361969 108.374474 136.047469 109.385374 138.917169 107.728474C 141.786969 106.071574 142.754269 102.374474 141.077669 99.470574L 116.236469 56.534274C 114.420969 54.117674 111.070469 53.369174 108.417269 54.900974C 105.567869 56.546074 104.594069 60.202574 106.221369 63.096874L 20.038869 112.854374C 18.660669 113.650074 17.655169 114.960574 17.243269 116.497674L 14.958169 125.025874L 102.425569 74.526574C 105.295369 72.869674 108.964869 73.852974 110.621769 76.722674C 112.278569 79.592474 111.295369 83.261974 108.425569 84.918874L 10.565869 141.418174L 10.137269 143.017874C 9.565469 145.151774 10.831869 147.345174 12.965669 147.916874L 14.566369 148.345774L 115.024069 90.346474ZM 132.201569 48.097674C 129.695169 49.544774 126.657869 47.626674 127.258169 44.795574C 129.749169 33.047274 137.025469 22.362874 148.244769 15.885474C 169.229869 3.769674 196.063369 10.959674 208.179169 31.944774C 220.294869 52.929874 213.104869 79.763374 192.119769 91.879174C 180.900469 98.356674 168.009469 99.315874 156.589569 95.599074C 153.837669 94.703374 153.695169 91.113974 156.201569 89.666874C 159.071269 88.010074 160.054569 84.340474 158.397669 81.470774L 140.397669 50.293874C 138.740769 47.424074 135.071269 46.440874 132.201569 48.097674ZM 182.305769 46.882974C 185.067169 51.665874 191.183069 53.304674 195.965969 50.543174C 200.748869 47.781774 202.387669 41.665874 199.626269 36.882974C 196.864769 32.100074 190.748869 30.461274 185.965969 33.222674C 181.183069 35.984174 179.544269 42.100074 182.305769 46.882974Z"></path></g></g></g><g id="g-root--1.g-0b_fr_13z8lm1ukcxsc-stroke" data-item-order="-519826" transform="translate(408, 192.0009765625)"><g id="-1.g-0b_fr_13z8lm1ukcxsc-stroke" fill="none" stroke-linecap="round" stroke-linejoin="round" stroke-miterlimit="4" stroke="#f4f4f4" stroke-width="2"><g><path d="M 70 110C 66.6863 110 64 112.6863 64 116L 64 232L 76.5858 219.4142C 77.3668 218.6332 77.3668 217.3668 76.5858 216.5858L 72 212L 77.4142 206.5858C 77.7893 206.2107 78 205.702 78 205.1716L 78 200.8284C 78 200.298 77.7893 199.7893 77.4142 199.4142L 72 194L 72 188L 77.4142 182.5858C 77.7893 182.2107 78 181.702 78 181.1716L 78 176.8284C 78 176.298 77.7893 175.7893 77.4142 175.4142L 72 170L 79.5858 162.4142C 80.3668 161.6332 80.3668 160.3668 79.5858 159.5858L 72 152L 76.5858 147.4142C 77.3668 146.6332 77.3668 145.3668 76.5858 144.5858L 75 143L 79.4142 138.5858C 79.7893 138.2107 80 137.702 80 137.1716L 80 130.8284C 80 130.298 79.7893 129.7893 79.4142 129.4142L 72 122L 77.4142 116.5858C 77.7893 116.2107 78 115.702 78 115.1716L 78 110L 70 110ZM 50.0003 113.0006C 46.6866 113.0006 44.0003 115.6869 44.0003 119.0006L 44.0003 220.0006L 56.0003 232.0006L 56.0003 119.0006C 56.0003 115.6869 53.314 113.0006 50.0003 113.0006ZM 84.9286 98L 84.8999 98L 35.1001 98L 35.169 98.0658C 32.2439 98.4965 30 100.9893 30 104C 30 107.2902 32.6797 109.9618 35.9999 109.9996L 35.9999 209.5147C 35.9999 211.106 36.6321 212.6321 37.7573 213.7574L 44.0003 220.0006L 44.0003 119.0006C 44.0003 115.6869 46.6866 113.0006 50.0003 113.0006C 53.314 113.0006 56.0003 115.6869 56.0003 119.0006L 56.0003 232.0006L 57.1715 233.1715C 58.7336 234.7336 61.2663 234.7336 62.8284 233.1715L 64 232L 64 116C 64 112.6863 66.6863 110 70 110L 78 110L 84.9286 110C 88.2817 110 90.9999 107.3137 90.9999 104C 90.9999 100.6863 88.2817 98 84.9286 98ZM 10 68C 10 56.9543 18.9543 48 30 48C 31.6569 48 33 46.6569 33 45L 33 37C 33 22.0883 45.0883 10.000001 60 10C 74.9117 9.999999 87 22.0883 87 37L 87 45C 87 46.6569 88.3431 48 90 48C 101.0457 48 110 56.9543 110 68C 110 79.0457 101.0457 88 90 88L 30 88C 18.9543 88 10 79.0457 10 68ZM 70.0003 33.0006C 70.0003 38.5234 65.5232 43.0006 60.0003 43.0006C 54.4775 43.0006 50.0003 38.5234 50.0003 33.0006C 50.0003 27.4777 54.4775 23.0006 60.0003 23.0006C 65.5232 23.0006 70.0003 27.4777 70.0003 33.0006Z"></path></g></g></g><g id="g-root--1.g-0a_fr_13z8lm1ukcxse-stroke" data-item-order="-519822" transform="translate(209.99099731445312, 314.82501220703125)"><g id="-1.g-0a_fr_13z8lm1ukcxse-stroke" fill="none" stroke-linecap="round" stroke-linejoin="round" stroke-miterlimit="4" stroke="#f4f4f4" stroke-width="2"><g><path d="M 104.1438 70.88C 102.487 73.7498 103.4702 77.4193 106.34 79.0762L 206.7989 137.0762L 201.1569 116.02C 201.0196 115.5076 200.6844 115.0708 200.2251 114.8056L 194.7317 111.634C 194.2724 111.3688 193.7265 111.2969 193.2141 111.4342L 183.0861 114.148L 181.1044 106.752C 180.9671 106.2397 180.6319 105.8028 180.1725 105.5376L 176.4112 103.366C 175.9519 103.1008 175.4059 103.0289 174.8936 103.1662L 167.4976 105.148L 165.8191 98.8837C 165.5332 97.8167 164.4366 97.1836 163.3696 97.4695L 157.1053 99.148L 154.3288 88.7856C 154.0429 87.7187 152.9462 87.0855 151.8793 87.3714L 141.5169 90.148L 139.8384 83.8837C 139.5525 82.8167 138.4558 82.1836 137.3889 82.4695L 131.1246 84.148L 129.1428 76.752C 129.0055 76.2397 128.6703 75.8028 128.211 75.5376L 124.4497 73.366C 123.9903 73.1008 123.4444 73.029 122.9321 73.1662L 115.5361 75.148L 113.5544 67.752C 113.4171 67.2397 113.0819 66.8028 112.6225 66.5376L 108.1438 63.9518L 104.1438 70.88ZM 96.7413 89.6998C 95.0844 92.5696 96.0677 96.2391 98.9374 97.896L 186.4047 148.3952L 186.406 148.396L 202.7983 144.0036L 202.797 144.0029L 104.9374 87.5037C 102.0677 85.8468 98.3981 86.83 96.7413 89.6998ZM 101.2156 51.9495L 76.7497 94.3266C 75.125 97.2204 76.0992 100.8747 78.9475 102.5191C 81.7968 104.1642 85.4504 103.1793 87.1432 100.3228L 173.3258 150.0803C 174.7039 150.876 176.3417 151.0916 177.8787 150.6797L 186.4047 148.3952L 98.9374 97.896C 96.0677 96.2391 95.0844 92.5696 96.7413 89.6998C 98.3981 86.83 102.0677 85.8468 104.9374 87.5037L 202.797 144.0029L 204.399 143.5736C 206.5328 143.0018 207.7991 140.8085 207.2274 138.6746L 206.7989 137.0762L 106.34 79.0762C 103.4702 77.4193 102.487 73.7498 104.1438 70.88L 105.1447 69.1467L 105.1442 69.145L 111.6079 57.9495C 113.2845 55.0457 112.3172 51.3485 109.4474 49.6916C 106.5777 48.0348 102.8922 49.0457 101.2156 51.9495ZM 34.7473 95.1712C 30.4796 96.3147 26.0929 93.782 24.9494 89.5143L 10.2746 34.7473C 9.131 30.4796 11.6637 26.0929 15.9314 24.9494L 70.6984 10.2746C 74.9662 9.131 79.3529 11.6637 80.4964 15.9314L 88.4391 45.5742C 89.2629 48.6483 88.8339 51.9199 87.2426 54.6761C 82.6662 62.6027 76.462 73.3486 71.675 81.64C 70.0837 84.3962 67.4642 86.4047 64.39 87.2284L 34.7473 95.1712ZM 44.7195 37.0131C 49.5025 39.7745 51.1412 45.8904 48.3798 50.6733C 45.6184 55.4563 39.5025 57.095 34.7195 54.3336C 29.9366 51.5722 28.2979 45.4563 31.0593 40.6733C 33.8207 35.8904 39.9366 34.2516 44.7195 37.0131Z"></path></g></g></g><g id="g-root-3.g-3_fr_zjf3hlukcyko-stroke" data-item-order="-519818" transform="translate(615.6366577148438, 299.7548828125)"><g id="3.g-3_fr_zjf3hlukcyko-stroke" fill="none" stroke-linecap="round" stroke-linejoin="round" stroke-miterlimit="4" stroke="#a6da37" stroke-width="2"><g><path d="M 34.821461 109.4546C 51.279161 120.0054 72.911261 121.2232 91.009061 110.7744C 116.836861 95.8627 125.686161 62.8368 110.774461 37.009C 95.862761 11.1812 62.836861 2.332 37.009061 17.2436C 18.880961 27.7099 9.117161 47.1 10.062861 66.6615L 34.821461 109.4546ZM 26.027961 58.2249C 28.897761 56.5681 32.567261 57.5513 34.224161 60.4211L 52.224161 91.598C 53.880961 94.4678 52.897761 98.1373 50.027961 99.7942C 47.521661 101.2412 47.664061 104.8306 50.416061 105.7263C 61.835861 109.4432 74.726961 108.4839 85.946261 102.0064C 106.931361 89.8907 114.121361 63.0571 102.005561 42.0721C 89.889861 21.087 63.056361 13.8969 42.071261 26.0127C 30.851861 32.4902 23.575661 43.1745 21.084661 54.9228C 20.484361 57.7539 23.521661 59.672 26.027961 58.2249Z"></path></g></g></g><g id="g-root-2.g-2_fr_zjf3hlukcykq-stroke" data-item-order="-519814" transform="translate(197.90481567382812, 302.90338134765625)"><g id="2.g-2_fr_zjf3hlukcykq-stroke" fill="none" stroke-linecap="round" stroke-linejoin="round" stroke-miterlimit="4" stroke="#43dd93" stroke-width="2"><g><path d="M 18.897169 28.358339C 12.495569 30.073639 8.696569 36.653739 10.411869 43.055339L 28.358369 110.032739C 30.073669 116.434339 36.653769 120.233339 43.055369 118.518039L 88.836069 106.251139L 112.838269 64.677239L 100.571469 18.897139C 98.856169 12.495539 92.276169 8.696539 85.874569 10.411839L 18.897169 28.358339ZM 37.035769 101.438839L 22.360969 46.671839C 21.217369 42.404139 23.750069 38.017439 28.017769 36.873839L 82.784769 22.199039C 87.052569 21.055539 91.439169 23.588239 92.582769 27.855939L 100.525469 57.498639C 101.349269 60.572839 100.920069 63.844739 99.328769 66.600939C 94.920569 74.236139 88.153669 85.956639 83.761169 93.564839C 82.169869 96.321039 79.550569 98.329239 76.476369 99.152939L 46.833669 107.095639C 42.565969 108.239239 38.179269 105.706539 37.035769 101.438839Z"></path></g></g></g><g id="g-root-1.g-1_fr_zjf3hlukcyks-stroke" data-item-order="-519810" transform="translate(398, 181.9970703125)"><g id="1.g-1_fr_zjf3hlukcyks-stroke" fill="none" stroke-linecap="round" stroke-linejoin="round" stroke-miterlimit="4" stroke="#1ac3fb" stroke-width="2"><g><path d="M 106 48.6001L 106 46C 106 26.1178 89.8822 9.999999 70 10C 50.1178 10 34 26.1177 34 46L 34 48.6001C 20.3066 51.3797 9.999999 63.4863 10 78C 10.000001 94.5685 23.4315 108 40 108L 100 108C 116.5685 108 130 94.5685 130 78C 130 63.4863 119.6934 51.3797 106 48.6001ZM 20 78C 20 66.9543 28.9543 58 40 58C 41.6569 58 43 56.6569 43 55L 43 47C 43 32.0883 55.0883 20 70 20C 84.9117 20 97 32.0883 97 47L 97 55C 97 56.6569 98.3431 58 100 58C 111.0457 58 120 66.9543 120 78C 120 89.0457 111.0457 98 100 98L 40 98C 28.9543 98 20 89.0457 20 78Z"></path></g></g></g><g id="g-root-tx_effizien_v3lld5ukczd2-stroke" data-item-order="0" transform="translate(230, 2)"></g><g id="g-root-tx_netzwerk_1ulj59lukeebx-stroke" data-item-order="0" transform="translate(338, 50)"></g><g id="g-root-tx_derproze_1q6c489ukebyf-stroke" data-item-order="0" transform="translate(374, 86)"></g><g id="g-root-tx_unabhngi_1lqim3tukecqo-stroke" data-item-order="0" transform="translate(2, 236)"></g><g id="g-root-tx_koordini_dbp3s9ukec5q-stroke" data-item-order="0" transform="translate(746, 236)"></g><g id="g-root-tx_einzelne_1lqim3tukecqp-stroke" data-item-order="0" transform="translate(2, 296)"></g><g id="g-root-tx_diesynch_8vvlntukecy1-stroke" data-item-order="0" transform="translate(740, 296)"></g><g id="g-root-netw_qns38pukd05c-stroke" data-item-order="0" transform="translate(422, 440)"><g id="netw_qns38pukd05c-stroke" fill="none" stroke-linecap="round" stroke-linejoin="round" stroke-miterlimit="4" stroke="#d3d3d3" stroke-width="2"><g><path d="M 43 68.5C 43 70.156853 41.656857 71.5 40 71.5L 16 71.5C 14.343145 71.5 13 70.156853 13 68.5L 13 53.5C 13 51.843143 14.343145 50.5 16 50.5L 40 50.5C 41.656857 50.5 43 51.843143 43 53.5ZM 28 71.5L 28 80.5M 19 80.5L 37 80.5M 79 68.5C 79 70.156853 77.656853 71.5 76 71.5L 52 71.5C 50.343143 71.5 49 70.156853 49 68.5L 49 53.5C 49 51.843143 50.343143 50.5 52 50.5L 76 50.5C 77.656853 50.5 79 51.843143 79 53.5ZM 64 71.5L 64 80.5M 55 80.5L 73 80.5M 64 32.5C 64 34.156857 62.656853 35.5 61 35.5L 31 35.5C 29.343145 35.5 28 34.156857 28 32.5L 28 14.5C 28 12.843145 29.343145 11.5 31 11.5L 61 11.5C 62.656853 11.5 64 12.843145 64 14.5ZM 46 35.5L 46 44.5M 37 44.5L 55 44.5"></path></g></g></g><g id="g-root-tx_verteilt_m7yl49ukd05r-stroke" data-item-order="0" transform="translate(374, 524)"></g></g></g></svg>